<?xml version="1.0" standalone="no"?><!DOCTYPE svg PUBLIC "-//W3C//DTD SVG 1.1//EN" "http://www.w3.org/Graphics/SVG/1.1/DTD/svg11.dtd"><svg t="1528880274919" class="icon" style="" viewBox="0 0 4551 1024" version="1.1" xmlns="http://www.w3.org/2000/svg" p-id="2632" xmlns:xlink="http://www.w3.org/1999/xlink" width="888.8671875" height="200"><defs><style type="text/css"></style></defs><path d="M674.928041 0H758.589641v1016.07664a284.362746 284.362746 0 0 1-94.823705-3.792949L86.695959 155.944356v863.925232H0V3.792948c21.67399 0 82.469531-8.019376 94.823705 3.792948L672.977382 868.260029z m1031.356802 0h84.31182v266.373334h292.598862v84.31182h-294.549521v227.035043c0 40.747101 2.384139 81.060722 3.792948 121.807822A284.362746 284.362746 0 0 0 2080.703016 936.533097v84.31182a366.398797 366.398797 0 0 1-366.940646-284.362745 1192.069436 1192.069436 0 0 1-9.428186-256.836779z m1928.985088 0h84.31182v487.664769c0 89.080098 8.019376 194.307318-13.221133 264.422675a379.294821 379.294821 0 0 1-195.065908 228.877332 417.115933 417.115933 0 0 1-303.435857 17.014082 386.230497 386.230497 0 0 1-230.827991-254.994489 379.294821 379.294821 0 0 1 265.723115-465.99078 379.294821 379.294821 0 0 1 203.085284 0.86696c98.616653 29.368256 122.241302 72.499496 189.53904 125.60077z m828.921738 0h85.829v484.196931c0 88.646618 8.561226 191.923179-13.221134 262.580386a379.294821 379.294821 0 0 1-196.691457 234.079089 417.115933 417.115933 0 0 1-303.435857 17.014082 386.772347 386.772347 0 0 1-230.286141-249.250882A379.294821 379.294821 0 0 1 4063.873078 279.052618a379.294821 379.294821 0 0 1 208.720522-0.75859c100.458942 29.910106 122.783152 73.474825 189.53904 127.44306z m-3245.679965 266.373334a452.119426 452.119426 0 0 1 166.781351 20.80703 379.294821 379.294821 0 0 1 224.759274 486.90618 379.294821 379.294821 0 0 1-303.435857 244.482604c-281.003277 49.633437-512.264748-250.334582-406.170568-516.166066A390.998775 390.998775 0 0 1 1127.047467 284.796225z m1672.581789 753.496254h-80.518872V881.047683c-64.48012 54.184974-100.025463 104.251891-198.533746 129.393719a417.982892 417.982892 0 0 1-237.005078-18.964741 379.294821 379.294821 0 0 1-211.97162-215.656198 385.797018 385.797018 0 0 1 119.857164-429.361737A414.731794 414.731794 0 0 1 2416.649857 277.752179c251.635021-73.908305 436.947633 122.783152 473.901786 311.346862zM1232.274687 348.842865l-78.676582 15.171793a303.435857 303.435857 0 0 0-181.953144 184.228913c-69.248397 200.484405 104.251891 420.908881 309.504573 388.181156a297.692249 297.692249 0 0 0 243.507275-182.386624c91.897717-219.449146-84.31182-406.604048-289.131023-405.195238z m1248.85529 0l-70.115357 20.80703a300.509868 300.509868 0 0 0-176.317907 189.539041 294.766261 294.766261 0 0 0 196.041238 368.457825 294.766261 294.766261 0 0 0 368.457825-196.041237 294.766261 294.766261 0 0 0-10.836994-201.676475c-47.357668-112.379637-142.181373-180.110855-303.435857-178.702045z m825.12879 0l-73.908305 20.80703A302.352157 302.352157 0 0 0 3066.86955 538.381905a294.766261 294.766261 0 0 0 173.391918 379.294821 294.766261 294.766261 0 0 0 379.294821-172.308218 294.766261 294.766261 0 0 0-4.551538-218.690557c-47.899517-109.995498-142.614853-177.726716-305.711626-176.317907z m828.488258 0l-75.858964 20.80703a304.302816 304.302816 0 0 0-166.781351 174.367248c-75.858964 200.050925 102.409602 426.544118 309.504573 391.974104C4371.210253 908.57365 4529.863858 738.866311 4443.167899 531.229489c-46.924188-114.221926-141.747893-181.953144-305.711625-180.544335z" p-id="2633" fill="#ffffff"></path></svg>